Format                           : AVI
Format/Info                      : Audio Video Interleave
File size                        : 279 MiB
Duration                         : 5mn 10s
Overall bit rate                 : 7 548 Kbps
Writing library                  : TMPGEnc 4.0 XPress Version. 4.7.4.299

Video
ID                               : 0
Format                           : MPEG-4 Visual
Format profile                   : Advanced Simple@L5
Format settings, BVOP            : Yes
Format settings, QPel            : No
Format settings, GMC             : No warppoints
Format settings, Matrix          : Default (H.263)
Muxing mode                      : Packed bitstream
Codec ID                         : DX50
Codec ID/Hint                    : DivX 5
Duration                         : 5mn 10s
Bit rate                         : 5 999 Kbps
Width                            : 1 280 pixels
Height                           : 720 pixels
Display aspect ratio             : 16:9
Frame rate                       : 25.000 fps
Color space                      : YUV
Chroma subsampling               : 4:2:0
Bit depth                        : 8 bits
Scan type                        : Progressive
Compression mode                 : Lossy
Bits/(Pixel*Frame)               : 0.260
Stream size                      : 222 MiB (79%)
Writing library                  : XviD 58

Audio
ID                               : 1
Format                           : PCM
Format settings, Endianness      : Little
Format settings, Sign            : Signed
Codec ID                         : 1
Codec ID/Hint                    : Microsoft
Duration                         : 5mn 10s
Bit rate mode                    : Constant
Bit rate                         : 1 536 Kbps
Channel(s)                       : 2 channels
Sampling rate                    : 48.0 KHz
Bit depth                        : 16 bits
Stream size                      : 56.8 MiB (20%)
Interleave, duration             : 40 ms (1.00 video frame)
Interleave, preload duration     : 479 ms